<?xml version="1.0" encoding="UTF-8"?>
<svg id="Layer_2" data-name="Layer 2" xmlns="http://www.w3.org/2000/svg" viewBox="0 0 466.08 164.46">
  <defs>
    <style>
      .cls-1 {
        stroke-width: 0px;
      }

      .cls-2 {
        stroke-width: 2px;
      }

      .cls-2, .cls-3 {
        fill: #fff;
        stroke: #000;
        stroke-miterlimit: 10;
      }

      .cls-3 {
        stroke-width: 3px;
      }
    </style>
  </defs>
  <g id="Layer_3" data-name="Layer 3">
    <g>
      <path class="cls-1" d="m157.76,132.98c-.82,0-1.43-.14-1.84-.41-.41-.27-.61-.68-.61-1.22v-55.42c0-1.86-.33-3.26-.99-4.22s-1.69-1.43-3.09-1.43c-1,0-2,.27-2.99.82s-1.97,1.35-2.92,2.41c-.95,1.07-1.9,2.44-2.86,4.11-.36.54-.77.87-1.22.99-.45.11-1.02-.03-1.7-.44-.59-.36-.93-.77-1.02-1.22-.09-.45.04-.97.41-1.56,1.13-1.99,2.33-3.72,3.6-5.17,1.27-1.45,2.66-2.56,4.18-3.33,1.52-.77,3.18-1.16,5-1.16,2.9,0,5.03.87,6.39,2.62,1.36,1.75,2.04,4.27,2.04,7.58v55.42c0,.54-.2.95-.61,1.22s-1,.41-1.77.41Zm29.04,0c-.77,0-1.36-.14-1.77-.41s-.61-.68-.61-1.22v-49.98c0-2.49-.33-4.54-.99-6.15-.66-1.61-1.66-2.82-2.99-3.64-1.34-.82-3.05-1.22-5.13-1.22-1.54,0-3.05.32-4.52.95-1.47.64-2.86,1.52-4.15,2.65-1.29,1.13-2.43,2.53-3.4,4.18-.98,1.66-1.83,3.53-2.55,5.61-.73,2.09-1.27,4.35-1.63,6.8l-1.36-6.39c.41-2.22,1.02-4.27,1.84-6.15.82-1.88,1.78-3.58,2.89-5.1,1.11-1.52,2.37-2.81,3.77-3.88,1.4-1.06,2.9-1.88,4.49-2.45,1.59-.57,3.24-.85,4.96-.85,2.95,0,5.43.58,7.45,1.73,2.02,1.16,3.55,2.85,4.59,5.07,1.04,2.22,1.56,5.01,1.56,8.36v50.46c0,.54-.2.95-.61,1.22-.41.27-1.02.41-1.84.41Zm38.56.14c-2,0-3.74-.29-5.24-.88-1.5-.59-2.73-1.47-3.71-2.65-.97-1.18-1.7-2.67-2.18-4.49-.48-1.81-.71-3.94-.71-6.39v-37.26c0-2.54-.31-4.63-.92-6.29-.61-1.65-1.56-2.87-2.86-3.64-1.29-.77-2.94-1.16-4.93-1.16-1.59,0-3.13.32-4.62.95-1.5.64-2.89,1.53-4.18,2.69-1.29,1.16-2.46,2.56-3.5,4.22-1.04,1.66-1.93,3.53-2.65,5.61-.73,2.09-1.27,4.31-1.63,6.66l-1.36-6.39c.45-2.18,1.09-4.2,1.9-6.09.82-1.88,1.79-3.57,2.92-5.07,1.13-1.5,2.42-2.79,3.88-3.88,1.45-1.09,2.98-1.91,4.59-2.48,1.61-.57,3.27-.85,5-.85,2.9,0,5.33.57,7.28,1.7,1.95,1.13,3.43,2.82,4.45,5.07,1.02,2.24,1.53,5.09,1.53,8.53v37.54c0,1.77.15,3.31.44,4.62.29,1.32.76,2.4,1.39,3.26.63.86,1.45,1.49,2.45,1.87,1,.39,2.18.58,3.54.58.68,0,1.14.22,1.39.65.25.43.31.92.17,1.46-.14.54-.41,1.03-.82,1.46-.41.43-.95.65-1.63.65Z"/>
      <path class="cls-1" d="m225.49,133.11c-.68,0-1.16-.22-1.43-.65-.27-.43-.35-.92-.24-1.46.11-.54.39-1.03.82-1.46.43-.43,1.01-.65,1.73-.65,2.36,0,4.76-.48,7.21-1.43,2.45-.95,4.65-2.22,6.6-3.81.5-.36.94-.45,1.33-.27.38.18.7.49.95.92.25.43.36.9.34,1.39-.02.5-.24.88-.65,1.16-1.63,1.27-3.4,2.38-5.3,3.33-1.9.95-3.83,1.68-5.78,2.18-1.95.5-3.81.75-5.58.75Z"/>
      <path class="cls-1" d="m240.45,123.8c.91-.68,1.78-1.4,2.62-2.18.84-.77,1.62-1.56,2.35-2.38,1.09-1.31,2.04-2.63,2.86-3.94.82-1.31,1.45-2.65,1.9-4.01.45-1.36.68-2.72.68-4.08,0-2.22-.46-3.81-1.39-4.76-.93-.95-2.21-1.43-3.84-1.43-.59,0-1.01-.21-1.26-.65-.25-.43-.37-.94-.37-1.53s.16-1.1.48-1.53c.32-.43.79-.65,1.43-.65,2.27,0,4.14.47,5.61,1.39,1.47.93,2.56,2.18,3.26,3.74.7,1.56,1.05,3.28,1.05,5.13,0,1.54-.3,3.14-.88,4.79-.59,1.66-1.41,3.31-2.45,4.96-1.04,1.66-2.24,3.23-3.61,4.73-.91,1-1.89,1.98-2.96,2.96-1.07.98-2.17,1.87-3.3,2.69l-2.18-3.26Z"/>
      <path class="cls-1" d="m252.21,133.11c-2.04,0-3.95-.4-5.75-1.19-1.79-.79-3.42-1.9-4.9-3.33-1.47-1.43-2.74-3.08-3.81-4.96-1.06-1.88-1.88-3.91-2.45-6.09-.57-2.18-.85-4.44-.85-6.8,0-1.99.27-3.85.82-5.58.54-1.72,1.33-3.22,2.35-4.49,1.02-1.27,2.23-2.25,3.64-2.96,1.41-.7,2.95-1.05,4.62-1.05.54,0,.94.22,1.19.65.25.43.36.94.34,1.53-.02.59-.19,1.1-.51,1.53-.32.43-.75.65-1.29.65-.68,0-1.34.14-1.97.41-.63.27-1.21.68-1.73,1.22-.52.54-.97,1.2-1.36,1.97-.38.77-.68,1.66-.88,2.65-.2,1-.31,2.11-.31,3.33,0,2.58.35,4.99,1.05,7.21.7,2.22,1.68,4.16,2.92,5.81,1.25,1.66,2.64,2.92,4.18,3.81,1.54.88,3.15,1.33,4.83,1.33s3.26-.4,4.62-1.19c1.36-.79,2.57-1.95,3.64-3.47,1.06-1.52,2.06-3.42,2.99-5.71.93-2.29,1.85-4.91,2.75-7.85.77-2.49,1.51-4.61,2.21-6.36.7-1.74,1.46-3.16,2.28-4.25.82-1.09,1.73-1.87,2.75-2.35,1.02-.48,2.19-.71,3.5-.71.54,0,.94.22,1.19.65.25.43.36.92.34,1.46-.02.54-.18,1.02-.48,1.43-.29.41-.71.61-1.26.61s-1.09.16-1.63.48c-.54.32-1.08.85-1.6,1.6-.52.75-1.07,1.8-1.63,3.16-.57,1.36-1.17,3.08-1.8,5.17-.95,3.17-1.98,6.1-3.09,8.77-1.11,2.68-2.37,4.98-3.77,6.9-1.41,1.93-3.03,3.41-4.86,4.45-1.84,1.04-3.93,1.56-6.29,1.56Z"/>
      <path class="cls-1" d="m282.88,132.98c-.77,0-1.35-.13-1.73-.37-.39-.25-.58-.62-.58-1.12v-25.36c0-1.81-.28-3.12-.85-3.91-.57-.79-1.49-1.19-2.75-1.19-.64,0-1.1-.2-1.39-.61-.29-.41-.44-.88-.44-1.43s.17-1.03.51-1.46c.34-.43.83-.65,1.46-.65,1.27,0,2.38.17,3.33.51.95.34,1.74.82,2.38,1.43.63.61,1.13,1.36,1.5,2.24.36.88.61,1.85.75,2.89l-.07,2.24c.77-1.9,1.65-3.46,2.65-4.66,1-1.2,2.03-2.15,3.09-2.86,1.06-.7,2.16-1.21,3.3-1.53,1.13-.32,2.18-.48,3.13-.48,2.04,0,3.86.4,5.47,1.19,1.61.79,2.9,2.07,3.88,3.84.97,1.77,1.46,4.1,1.46,7v22.78c0,.5-.19.87-.58,1.12-.39.25-.99.37-1.8.37s-1.42-.13-1.8-.37c-.39-.25-.58-.62-.58-1.12v-22.17c0-1.77-.21-3.26-.65-4.49-.43-1.22-1.13-2.15-2.11-2.79-.97-.63-2.3-.95-3.98-.95-1.09,0-2.18.24-3.26.71-1.09.48-2.14,1.26-3.16,2.35-1.02,1.09-1.94,2.46-2.75,4.11-.82,1.66-1.47,3.64-1.97,5.95v17.27c0,.5-.2.87-.61,1.12-.41.25-1.02.37-1.84.37Zm51.07.14c-1.41,0-2.63-.2-3.67-.61-1.04-.41-1.89-1.03-2.55-1.87-.66-.84-1.15-1.88-1.46-3.13-.32-1.25-.48-2.73-.48-4.45v-13.74c0-1.77-.22-3.26-.65-4.49-.43-1.22-1.13-2.15-2.11-2.79-.98-.63-2.28-.95-3.91-.95-1.27,0-2.54.31-3.81.92-1.27.61-2.46,1.56-3.57,2.86-1.11,1.29-2.1,2.97-2.96,5.03-.86,2.06-1.52,4.55-1.97,7.45h-1.7c.14-3.63.63-6.74,1.5-9.35.86-2.61,1.98-4.76,3.37-6.46,1.38-1.7,2.92-2.93,4.62-3.71,1.7-.77,3.43-1.16,5.2-1.16,2.04,0,3.86.4,5.47,1.19,1.61.79,2.88,2.07,3.81,3.84.93,1.77,1.39,4.1,1.39,7v14.21c0,2.13.31,3.66.92,4.59.61.93,1.76,1.39,3.43,1.39.5,0,.88.22,1.16.65.27.43.37.92.31,1.46-.07.54-.29,1.03-.68,1.46-.39.43-.94.65-1.67.65Z"/>
      <path class="cls-1" d="m333.95,133.11c-.54,0-.95-.22-1.22-.65-.27-.43-.38-.92-.34-1.46s.27-1.03.68-1.46c.41-.43,1-.65,1.77-.65,1.32,0,2.52-.26,3.6-.78,1.09-.52,2.07-1.28,2.96-2.28.88-1,1.63-2.21,2.24-3.64.61-1.43,1.08-3.05,1.39-4.86.09-.59.38-.96.88-1.12.5-.16.97-.14,1.43.07.45.2.66.62.61,1.26-.32,2.4-.86,4.57-1.63,6.49-.77,1.93-1.76,3.56-2.96,4.9-1.2,1.34-2.6,2.37-4.18,3.09-1.59.72-3.33,1.09-5.24,1.09Z"/>
      <path class="cls-1" d="m360.27,133.25c-3.08,0-5.79-.77-8.13-2.31-2.34-1.54-4.15-3.68-5.44-6.43-1.29-2.74-1.94-5.93-1.94-9.55,0-2.67.38-5.13,1.16-7.38.77-2.24,1.85-4.17,3.23-5.78,1.38-1.61,3.01-2.87,4.9-3.77,1.88-.91,3.96-1.36,6.22-1.36,2.99,0,5.65.78,7.99,2.35s4.16,3.72,5.47,6.46c1.31,2.74,1.97,5.88,1.97,9.42,0,2.18-.24,4.19-.71,6.05-.48,1.86-1.17,3.55-2.07,5.07-.91,1.52-2,2.81-3.26,3.88-1.27,1.07-2.7,1.89-4.28,2.48-1.59.59-3.29.88-5.1.88Zm0-4.42c1.63,0,3.09-.34,4.39-1.02s2.4-1.63,3.33-2.86c.93-1.22,1.63-2.69,2.11-4.39.48-1.7.71-3.59.71-5.68,0-2.76-.43-5.19-1.29-7.28-.86-2.08-2.07-3.69-3.64-4.83-1.56-1.13-3.43-1.7-5.61-1.7-1.59,0-3.05.32-4.39.95-1.34.64-2.47,1.58-3.4,2.82-.93,1.25-1.63,2.72-2.11,4.42-.48,1.7-.71,3.59-.71,5.68,0,2.77.44,5.19,1.33,7.28.88,2.09,2.11,3.71,3.67,4.86,1.56,1.16,3.43,1.73,5.61,1.73Z"/>
      <path class="cls-1" d="m379.04,105.23c-2.04,0-4.11-.28-6.22-.85-2.11-.57-4.5-1.57-7.17-3.03-.5-.23-.78-.55-.85-.99-.07-.43-.01-.84.17-1.22.18-.38.45-.67.82-.85.36-.18.75-.16,1.16.07,1.95,1.09,3.91,1.86,5.88,2.31,1.97.45,4.11.68,6.43.68,1.36,0,2.67-.14,3.94-.41,1.27-.27,2.45-.69,3.54-1.26,1.09-.57,1.97-1.23,2.65-2.01.32-.32.65-.42.99-.31.34.11.65.35.92.71.27.36.41.76.41,1.19s-.16.83-.48,1.19c-1.32,1.13-2.63,2.05-3.94,2.75-1.32.7-2.64,1.21-3.98,1.53-1.34.32-2.75.48-4.25.48Z"/>
      <path class="cls-1" d="m391,85.99c-1.13,0-1.97-.32-2.52-.95-.54-.63-.82-1.59-.82-2.86s.27-2.22.82-2.86c.54-.63,1.38-.95,2.52-.95s1.97.32,2.52.95c.54.64.82,1.59.82,2.86.09,1.27-.16,2.22-.75,2.86-.59.64-1.45.95-2.58.95Zm5.98,47.12c-1.41,0-2.64-.2-3.71-.61-1.07-.41-1.93-1.03-2.58-1.87-.66-.84-1.16-1.88-1.5-3.13-.34-1.25-.51-2.73-.51-4.45v-24.62c0-.5.19-.87.58-1.12.38-.25.96-.37,1.73-.37.82,0,1.43.13,1.84.37.41.25.61.62.61,1.12v24.48c0,2.13.29,3.66.88,4.59.59.93,1.77,1.39,3.54,1.39.54,0,.94.22,1.19.65.25.43.35.92.31,1.46-.05.54-.26,1.03-.65,1.46-.39.43-.96.65-1.73.65Z"/>
      <path class="cls-1" d="m396.99,133.11c-.68,0-1.16-.22-1.43-.65-.27-.43-.35-.92-.24-1.46s.39-1.03.82-1.46c.43-.43,1.01-.65,1.73-.65,1.45,0,2.89-.61,4.32-1.84,1.43-1.22,2.82-3.06,4.18-5.51,1.36-2.45,2.74-5.54,4.15-9.28,1.41-3.74,2.86-8.13,4.35-13.16.18-.59.54-.91,1.09-.95.54-.04,1.03.09,1.46.41.43.32.58.79.44,1.43-1.54,5.89-3.05,10.94-4.52,15.13-1.47,4.19-3,7.62-4.59,10.27-1.59,2.65-3.34,4.6-5.27,5.85-1.93,1.25-4.09,1.87-6.49,1.87Z"/>
      <path class="cls-1" d="m422.49,133.25c-2.04,0-3.98-.32-5.81-.95s-3.39-1.5-4.66-2.58c-.27-.32-.41-.7-.41-1.16s.25-.95.75-1.5c.41-.45.79-.71,1.16-.78.36-.07.79.08,1.29.44,1.22.86,2.46,1.52,3.71,1.97,1.25.45,2.64.68,4.18.68,2.08,0,3.72-.62,4.9-1.87,1.18-1.25,1.77-2.89,1.77-4.93,0-1.68-.37-3.15-1.12-4.42-.75-1.27-1.73-2.46-2.96-3.57-1.22-1.11-2.54-2.19-3.94-3.23-1.41-1.04-2.71-2.15-3.91-3.33-1.2-1.18-2.2-2.5-2.99-3.98-.79-1.47-1.19-3.18-1.19-5.13,0-1.59.37-2.89,1.12-3.91s1.71-1.53,2.89-1.53c.82,0,1.43.19,1.84.58.41.39.61.94.61,1.67,0,.64-.15,1.41-.44,2.31-.29.91-.69,1.9-1.19,2.99.04,1.18.46,2.28,1.26,3.3.79,1.02,1.8,2,3.03,2.92,1.22.93,2.52,1.88,3.88,2.86,1.36.98,2.64,2.04,3.84,3.2,1.2,1.16,2.19,2.51,2.96,4.05.77,1.54,1.16,3.31,1.16,5.3,0,3.17-1.07,5.74-3.2,7.68-2.13,1.95-4.96,2.92-8.5,2.92Zm11.9-.14c-1.22,0-2.39-.11-3.5-.34-1.11-.23-2.19-.4-3.23-.51-1.04-.11-2.18.03-3.4.44l1.5-1.97c1.45-.54,2.72-.95,3.81-1.22,1.09-.27,2.07-.44,2.96-.51.88-.07,1.78-.1,2.69-.1.41,0,.68.22.82.65.14.43.15.92.03,1.46s-.32,1.03-.61,1.46c-.3.43-.65.65-1.05.65Z"/>
      <path class="cls-1" d="m434.32,133.11c-.54,0-.95-.22-1.22-.65-.27-.43-.38-.92-.34-1.46s.27-1.03.68-1.46c.41-.43,1-.65,1.77-.65,1.45,0,2.86-.31,4.22-.92,1.36-.61,2.62-1.5,3.77-2.65,1.16-1.16,2.23-2.63,3.23-4.42,1-1.79,1.88-3.86,2.65-6.22.18-.59.52-.86,1.02-.82.5.05.92.25,1.26.61.34.36.44.77.31,1.22-.82,2.86-1.78,5.36-2.89,7.51-1.11,2.15-2.39,3.97-3.84,5.44-1.45,1.47-3.06,2.58-4.83,3.33-1.77.75-3.69,1.12-5.78,1.12Z"/>
      <path class="cls-1" d="m455.94,133.11c-1.68,0-3.08-.34-4.22-1.02-1.13-.68-1.98-1.65-2.55-2.92-.57-1.27-.85-2.81-.85-4.62v-22.24h-5.58c-.54,0-.95-.17-1.22-.51-.27-.34-.41-.89-.41-1.67,0-.82.14-1.38.41-1.7.27-.32.68-.48,1.22-.48h5.58v-14.14c0-.5.19-.87.58-1.12.38-.25.99-.37,1.8-.37s1.43.13,1.84.37c.41.25.61.62.61,1.12v14.14h9.04c.54,0,.94.16,1.19.48.25.32.37.88.37,1.7,0,.77-.13,1.33-.37,1.67-.25.34-.65.51-1.19.51h-9.04v21.49c0,1.72.23,3,.68,3.84.45.84,1.31,1.26,2.58,1.26,1.04,0,1.97-.32,2.79-.95.82-.63,1.63-1.47,2.45-2.52.36-.45.74-.66,1.12-.61.38.05.78.23,1.19.54.5.36.78.74.85,1.12.07.39.01.76-.17,1.12-.68,1.22-1.49,2.24-2.41,3.06-.93.82-1.92,1.43-2.96,1.84-1.04.41-2.15.61-3.33.61Z"/>
    </g>
  </g>
  <g id="Layer_4" data-name="Layer 4">
    <g>
      <g>
        <rect class="cls-3" x="21.43" y="1.5" width="97.66" height="130.21" rx="7.07" ry="7.07"/>
        <g>
          <path class="cls-1" d="m32.42,52.81l-.11.7c.23.14.43.3.61.5.19.17.36.38.55.55.47.44.97.83,1.57,1.07,1,.4,2.05.31,3.02-.14.79-.38,1.46-.96,2.12-1.53.5-.44,1.28-1.35,2.01-1.35s1.38,1.1,1.84,1.56c.86.86,1.89,1.49,3.14,1.49,1.34,0,2.54-.67,3.56-1.47.7-.55,1.95-2.01,2.98-1.75.86.22.43,1.85.81,2.61.54,1.08,1.6,1.72,2.77,1.88,1.23.18,2.36-.24,3.49-.67,1.54-.58,3.11-.9,4.74-1,3.1-.21,6.25-.05,9.36-.03s6.49.05,9.74.07c7.5.06,15.01.12,22.51.17,1.93.01,1.93-2.99,0-3-7.17-.05-14.35-.11-21.52-.16-3.58-.03-7.16-.05-10.74-.08-3.32-.03-6.71-.22-10.02.08-1.53.14-3.05.4-4.5.92-.76.27-2.68,1.38-3.17.34-.26-.55-.02-1.43-.27-2.05-.23-.57-.6-1.04-1.1-1.39-.96-.68-2.26-.85-3.39-.55-1.41.37-2.38,1.39-3.5,2.25-.47.36-1.12.88-1.75.84-.59-.04-.96-.54-1.34-.95-1.6-1.73-3.52-2.78-5.78-1.45-.98.58-1.73,1.44-2.63,2.12-1.09.82-1.46.38-2.38-.49-1.08-1.03-2.58-1.92-4.08-1.18-1.33.65-1.95,2.34-1.13,3.62,1.04,1.62,3.64.11,2.59-1.51h0Z"/>
          <path class="cls-1" d="m29.87,79.79c1.72,2.1,4.77,2.32,7.14,1.3,2.69-1.16,4.29-3.81,5.67-6.26h-2.59c2.9,5,9.35,4.22,14.26,4.07,4.32-.13,10.73.71,13.42-3.56l-2.74-.36c.75,3.14,3.67,5.3,6.83,5.52,3.71.26,5.45-2.68,8.14-4.56,1.61-1.12,3.07-.56,4.55.52,1.62,1.18,3.11,2.47,4.85,3.48,3.52,2.02,7.48,3.2,11.52,3.52,2.1.16,4.48.23,6.44-.62,2.06-.9,3.22-2.83,2.88-5.06-.29-1.9-3.18-1.09-2.89.8.33,2.17-3.99,1.98-5.17,1.95-2.11-.06-4.2-.41-6.22-1.02-2.16-.65-4.22-1.6-6.12-2.81-1.76-1.12-3.24-2.71-5.11-3.66-1.74-.88-3.64-1.03-5.42-.16-1.58.77-2.74,2.15-4.04,3.29s-2.6,1.65-4.24,1.18c-1.54-.44-2.74-1.59-3.12-3.15-.31-1.3-2.08-1.41-2.74-.36-.89,1.41-2.74,1.73-4.28,1.85-2.17.18-4.37.16-6.55.22-3.6.11-9.48,1.19-11.67-2.59-.56-.96-2.04-.98-2.59,0-.97,1.72-1.99,3.66-3.71,4.74-1.39.87-3.28.96-4.38-.39-1.22-1.5-3.33.64-2.12,2.12h0Z"/>
          <path class="cls-1" d="m32.22,106.49l1.68-3.4-2.05.54,4.18,2.94c.89.63,2.36-.2,2.26-1.3-.04-.47-.16-.05.04-.17.16-.1.35-.16.53-.2.52-.11,1.02.04,1.53.14,1.3.26,2.72.48,3.94-.19.41-.23,1.06-.67,1.29-1.1.31-.6-.02-.07-.14-.29.08.14.16.27.24.41.5.84,1.1,1.66,2.11,1.89,1.35.31,2.02-.55,3.04-1.17,1.14-.69,2.65.46,3.81.7,2.2.46,4.94-.5,4.98-3.08l-2.8.76c1.4,1.91,3.78,2.38,5.94,1.46,2.48-1.07,3.58-3.68,4.5-6.04l-2.74.36c1.43,2.69,3.3,5.89,6.53,6.61,2.76.62,5.77-.51,6.72-3.32h-2.89l.61,2.72c.31,1.38,2.03,1.31,2.74.36,1.61-2.17,5.32.37,6.94,1.15,2.38,1.15,5.4,1.85,7.69.09l-2.26-1.3c.07,2.07,1.96,3.26,3.92,3.03,1.12-.13,2.1-.76,3.22-.88s2.3.25,3.38.58c3.19.95,8.05,1.83,9.75-2.04.77-1.75-1.81-3.28-2.59-1.51-1.07,2.44-4.5,1.22-6.36.66-1.49-.45-3.03-.82-4.59-.64-.37.04-3.71,1.06-3.72.8-.04-1.01-1.3-2.03-2.26-1.3-2.6,2-5.98-.99-8.44-1.9-2.6-.97-5.55-.56-7.26,1.74l2.74.36-.61-2.72c-.34-1.53-2.45-1.32-2.89,0-.49,1.47-2.63,1.53-3.81.96-1.93-.94-3-3.16-3.96-4.96-.66-1.24-2.31-.76-2.74.36-.51,1.32-1.09,2.91-2.27,3.79-.66.49-2.08.89-2.68.08-.84-1.15-2.78-.84-2.8.76,0,.49-1.87-.02-2.2-.14-1.34-.49-2.75-1-4.18-.54-.59.19-1.06.55-1.53.93-.77.61,0,.04-.04.48,0-.07-.22-.28-.26-.38-.42-.84-1.09-1.72-2.02-1.99-1.16-.34-2.13.26-2.91,1.05-.52.52-.76.73-1.54.65-.65-.07-1.29-.26-1.94-.35-2.08-.29-4.97.81-4.74,3.34l2.26-1.3-4.18-2.94c-.63-.44-1.71-.14-2.05.54l-1.68,3.4c-.86,1.72,1.73,3.25,2.59,1.51h0Z"/>
          <path class="cls-1" d="m32.52,28.04c-.38-.93,1.98.44,2.17.58,1.11.81,2.23,1.66,3.66,1.75,1.11.07,2.12-.34,3.05-.92.99-.62,1.82-1.47,3.05-1.07,1.03.34,1.93,1.07,2.95,1.48,1.09.44,2.23.53,3.39.3,2.17-.43,3.98-2.17,6.18-2.38s3.87,2.2,5.78,2.88c1.14.4,2.34.35,3.5.05,1.23-.31,2.43-1.03,3.72-1.11s2.49.69,3.64,1.16c1.3.53,2.61.75,4.01.59,2.62-.31,4.99-1.85,7.63-1.89.59,0,1.2.04,1.74.29.6.28.95.8,1.61,1,1.26.37,2.66.38,3.95.21,2.69-.36,5.21-1.72,6.91-3.84l-2.51-.66c.2.59.41,1.18.61,1.77.23.65.75,1.07,1.45,1.1,2.68.11,5.27,1.06,7.35,2.77,1.48,1.21,3.62-.9,2.12-2.12-2.73-2.24-5.94-3.5-9.47-3.65l1.45,1.1c-.2-.59-.41-1.18-.61-1.77-.33-.95-1.75-1.61-2.51-.66-1.57,1.96-3.88,3.13-6.41,3.07-.33,0-1.26-.09-1.3-.11-.51-.25-.9-.69-1.44-.93-1.09-.48-2.31-.63-3.49-.54-2.84.22-5.53,2.15-8.38,1.92-1.34-.11-2.5-.86-3.73-1.32-1.32-.5-2.62-.6-4-.29-1.2.27-2.32.91-3.54,1.11-1.34.22-2.34-.55-3.37-1.29-2.03-1.45-4.07-2.3-6.56-1.48-1.92.63-4.17,2.63-6.29,2.08-1.11-.29-2.07-1.09-3.13-1.53-1.15-.48-2.36-.59-3.54-.13-1.12.43-2.21,1.71-3.4,1.84-1.37.15-2.84-1.7-4.03-2.24-1.29-.58-2.7-.65-3.9.19-1.1.77-1.75,2.21-1.22,3.5.72,1.76,3.63.99,2.89-.8h0Z"/>
        </g>
      </g>
      <rect class="cls-3" x="1.5" y="18.03" width="9.52" height="87.72" rx="1.36" ry="1.36" transform="translate(12.52 123.78) rotate(180)"/>
      <path class="cls-2" d="m10.87,110.05l-4.3,12.33c-.1.29-.52.29-.62,0l-4.3-12.33c-.07-.21.08-.44.31-.44h8.59c.23,0,.38.22.31.44Z"/>
    </g>
  </g>
</svg>